<svg width="40" height="40" viewBox="0 0 40 40" fill="none" xmlns="http://www.w3.org/2000/svg">
<rect width="40" height="40" rx="20" fill="white"/>
<path d="M9.90557 13.1378V26.9969C9.62088 26.7967 9.38353 26.5354 9.21141 26.2313C9.01134 25.8778 8.9062 25.4785 8.90625 25.0723V25.0722L8.90625 15.4977L8.90625 15.4972C8.90607 14.9309 9.05242 14.3741 9.33107 13.8811C9.48658 13.606 9.68034 13.3559 9.90557 13.1378ZM16.9049 15.0495C16.9048 14.8256 16.8734 14.6038 16.8125 14.3903L20.1418 16.3891L19.4299 16.8167C19.4298 16.8168 19.4297 16.8168 19.4295 16.8169C18.9025 17.1333 18.4664 17.5808 18.1635 18.1157C17.8606 18.6508 17.7014 19.2551 17.7014 19.87C17.7014 20.4848 17.8606 21.0892 18.1635 21.6243C18.4664 22.1593 18.9027 22.6069 19.4299 22.9233L20.3961 23.5035L17.4203 25.2902L17.4198 25.2905C17.2291 25.4051 17.056 25.5451 16.9049 25.7059V15.0505V15.0495ZM29.5835 21.4826C29.2462 20.8867 28.7654 20.3849 28.1853 20.0226C28.7653 19.6601 29.2459 19.1583 29.5831 18.5624C29.9322 17.9455 30.1156 17.2487 30.1156 16.5399C30.1156 15.8311 29.9322 15.1343 29.5831 14.5174C29.234 13.9005 28.7312 13.3845 28.1236 13.0195L28.1231 13.0192L19.0502 7.57404C19.3495 7.44152 19.6742 7.37241 20.0036 7.37241C20.4306 7.37241 20.8495 7.48848 21.2156 7.70822L21.2157 7.70829L29.9592 12.9555C29.9592 12.9555 29.9593 12.9556 29.9593 12.9556C29.9594 12.9556 29.9594 12.9557 29.9595 12.9557C30.3076 13.1648 30.5957 13.4604 30.7957 13.8139C30.9958 14.1674 31.101 14.5667 31.101 14.973V25.0746L31.101 25.0748C31.1011 25.481 30.9959 25.8802 30.7959 26.2337C30.5958 26.5872 30.3076 26.8829 29.9593 27.092L21.2157 32.3393L21.2156 32.3393C20.8495 32.5591 20.4306 32.6752 20.0036 32.6752C19.6676 32.6752 19.3365 32.6032 19.0322 32.4655C19.1146 32.4301 19.1948 32.3891 19.2721 32.3427L19.2724 32.3425L28.1232 27.0267C28.1233 27.0266 28.1234 27.0266 28.1235 27.0265C28.7313 26.6616 29.2343 26.1456 29.5835 25.5286C29.9327 24.9116 30.1163 24.2147 30.1163 23.5056C30.1163 22.7966 29.9327 22.0996 29.5835 21.4826Z" fill="black" stroke="black" stroke-width="3"/>
<g opacity="0.2">
<g opacity="0.85">
<mask id="path-3-inside-1_4_520" fill="white">
<path d="M23.0532 16.3889L14.6961 11.37C13.9524 10.9235 13.1013 10.6876 12.2339 10.6876C11.3664 10.6876 10.5153 10.9235 9.77162 11.37L9.72318 11.3991C9.45985 11.5579 9.21224 11.7414 8.9837 11.9472C9.481 11.5056 10.3278 11.1973 11.3959 11.1973C12.2594 11.1975 13.1066 11.4324 13.8468 11.877L22.2136 16.8903L23.0532 16.3889Z"/>
</mask>
<path d="M23.0532 16.3889L14.6961 11.37C13.9524 10.9235 13.1013 10.6876 12.2339 10.6876C11.3664 10.6876 10.5153 10.9235 9.77162 11.37L9.72318 11.3991C9.45985 11.5579 9.21224 11.7414 8.9837 11.9472C9.481 11.5056 10.3278 11.1973 11.3959 11.1973C12.2594 11.1975 13.1066 11.4324 13.8468 11.877L22.2136 16.8903L23.0532 16.3889Z" fill="black"/>
<path d="M23.0532 16.3889L24.5912 18.9647L28.8925 16.3963L24.5977 13.8171L23.0532 16.3889ZM14.6961 11.37L16.2406 8.79817L16.2404 8.79802L14.6961 11.37ZM12.2339 10.6876L12.2339 13.6876L12.2339 10.6876ZM9.77162 11.37L11.3151 13.9425L11.3159 13.942L9.77162 11.37ZM9.72318 11.3991L8.17969 8.82659L8.17377 8.83016L9.72318 11.3991ZM8.9837 11.9472L6.97629 9.71782L10.9757 14.1905L8.9837 11.9472ZM11.3959 11.1973L11.3967 8.19725H11.3959V11.1973ZM13.8468 11.877L12.3023 14.4489L12.3049 14.4504L13.8468 11.877ZM22.2136 16.8903L20.6716 19.4637L22.2109 20.386L23.7516 19.466L22.2136 16.8903ZM24.5977 13.8171L16.2406 8.79817L13.1516 13.9419L21.5086 18.9608L24.5977 13.8171ZM16.2404 8.79802C15.0303 8.07143 13.6454 7.68759 12.2339 7.68759L12.2339 13.6876C12.5572 13.6876 12.8745 13.7755 13.1518 13.942L16.2404 8.79802ZM12.2339 7.68759C10.8224 7.68759 9.43743 8.07143 8.22732 8.79802L11.3159 13.942C11.5932 13.7755 11.9105 13.6876 12.2339 13.6876L12.2339 7.68759ZM8.22813 8.79754L8.17969 8.8266L11.2667 13.9716L11.3151 13.9425L8.22813 8.79754ZM8.17377 8.83016C7.74733 9.08736 7.34636 9.38459 6.97629 9.71782L10.9911 14.1766C11.0781 14.0983 11.1724 14.0284 11.2726 13.968L8.17377 8.83016ZM10.9757 14.1905C10.8607 14.2925 10.8129 14.289 10.9024 14.26C10.9832 14.2337 11.1465 14.1973 11.3959 14.1973V8.19725C9.81705 8.19725 8.18484 8.64454 6.99174 9.70399L10.9757 14.1905ZM11.3951 14.1973C11.7147 14.1973 12.0283 14.2843 12.3023 14.4489L15.3913 9.30513C14.1848 8.58057 12.804 8.19762 11.3967 8.19725L11.3951 14.1973ZM12.3049 14.4504L20.6716 19.4637L23.7556 14.3169L15.3888 9.30359L12.3049 14.4504ZM23.7516 19.466L24.5912 18.9647L21.5152 13.8132L20.6756 14.3145L23.7516 19.466Z" fill="black" mask="url(#path-3-inside-1_4_520)"/>
</g>
<g opacity="0.85">
<mask id="path-5-inside-2_4_520" fill="white">
<path d="M20.1994 21.6371C19.8943 21.454 19.6418 21.195 19.4665 20.8853C19.2912 20.5756 19.199 20.2258 19.199 19.87C19.199 19.5141 19.2912 19.1643 19.4665 18.8546C19.6418 18.545 19.8943 18.2859 20.1994 18.1028V18.1028L19.3542 18.6122C19.049 18.7953 18.7965 19.0544 18.6212 19.364C18.4459 19.6737 18.3538 20.0235 18.3538 20.3794C18.3538 20.7352 18.4459 21.085 18.6212 21.3947C18.7965 21.7044 19.049 21.9634 19.3542 22.1465L22.459 24.0162L23.3099 23.5036L20.1994 21.6371Z"/>
</mask>
<path d="M20.1994 21.6371C19.8943 21.454 19.6418 21.195 19.4665 20.8853C19.2912 20.5756 19.199 20.2258 19.199 19.87C19.199 19.5141 19.2912 19.1643 19.4665 18.8546C19.6418 18.545 19.8943 18.2859 20.1994 18.1028V18.1028L19.3542 18.6122C19.049 18.7953 18.7965 19.0544 18.6212 19.364C18.4459 19.6737 18.3538 20.0235 18.3538 20.3794C18.3538 20.7352 18.4459 21.085 18.6212 21.3947C18.7965 21.7044 19.049 21.9634 19.3542 22.1465L22.459 24.0162L23.3099 23.5036L20.1994 21.6371Z" fill="black"/>
<path d="M20.1994 21.6371L18.6556 24.2094L18.6558 24.2096L20.1994 21.6371ZM19.3542 18.6122L20.898 21.1845L20.9027 21.1817L19.3542 18.6122ZM19.3542 22.1465L20.9018 19.5765L20.898 19.5743L19.3542 22.1465ZM22.459 24.0162L20.9114 26.5862L22.4594 27.5184L24.0072 26.5859L22.459 24.0162ZM23.3099 23.5036L24.858 26.0733L29.1319 23.4984L24.8535 20.9312L23.3099 23.5036ZM21.7432 19.0649C21.8823 19.1483 21.9973 19.2663 22.0772 19.4074L16.8558 22.3632C17.2862 23.1237 17.9063 23.7597 18.6556 24.2094L21.7432 19.0649ZM22.0772 19.4074C22.157 19.5485 22.199 19.7078 22.199 19.87H16.199C16.199 20.7438 16.4253 21.6028 16.8558 22.3632L22.0772 19.4074ZM22.199 19.87C22.199 20.0321 22.157 20.1915 22.0772 20.3326L16.8558 17.3767C16.4253 18.1372 16.199 18.9961 16.199 19.87H22.199ZM22.0772 20.3326C21.9973 20.4736 21.8823 20.5916 21.7432 20.6751L18.6556 15.5305C17.9063 15.9802 17.2862 16.6163 16.8558 17.3767L22.0772 20.3326ZM18.6509 15.5334L17.8056 16.0428L20.9027 21.1817L21.7479 20.6723L18.6509 15.5334ZM17.8103 16.0399C17.0611 16.4896 16.441 17.1257 16.0105 17.8861L21.2319 20.842C21.1521 20.983 21.037 21.1011 20.898 21.1845L17.8103 16.0399ZM16.0105 17.8861C15.58 18.6466 15.3538 19.5055 15.3538 20.3794H21.3538C21.3538 20.5415 21.3118 20.7009 21.2319 20.842L16.0105 17.8861ZM15.3538 20.3794C15.3538 21.2532 15.58 22.1122 16.0105 22.8726L21.2319 19.9168C21.3118 20.0579 21.3538 20.2172 21.3538 20.3794H15.3538ZM16.0105 22.8726C16.441 23.6331 17.0611 24.2691 17.8103 24.7188L20.898 19.5743C21.037 19.6577 21.1521 19.7757 21.2319 19.9168L16.0105 22.8726ZM17.8066 24.7165L20.9114 26.5862L24.0066 21.4462L20.9018 19.5765L17.8066 24.7165ZM24.0072 26.5859L24.858 26.0733L21.7618 20.9339L20.9109 21.4465L24.0072 26.5859ZM24.8535 20.9312L21.743 19.0647L18.6558 24.2096L21.7663 26.076L24.8535 20.9312Z" fill="black" mask="url(#path-5-inside-2_4_520)"/>
</g>
<g opacity="0.85">
<mask id="path-7-inside-3_4_520" fill="white">
<path d="M18.1925 26.5753L18.6276 26.3138L17.3432 27.0847C17.2088 27.1655 17.0975 27.2797 17.0203 27.4162C16.9431 27.5528 16.9025 27.7069 16.9024 27.8638V31.1414C16.9026 31.2289 16.9259 31.3148 16.97 31.3903C17.0141 31.4658 17.0775 31.5283 17.1536 31.5714C17.2298 31.6145 17.316 31.6366 17.4035 31.6355C17.4909 31.6344 17.5766 31.6102 17.6516 31.5652L18.4952 31.0566C18.4202 31.1005 18.3349 31.1238 18.2479 31.1242C18.161 31.1246 18.0755 31.102 18 31.0588C17.9246 31.0155 17.8619 30.9532 17.8183 30.8779C17.7747 30.8027 17.7517 30.7173 17.7517 30.6304V27.3528C17.752 27.1962 17.7927 27.0424 17.87 26.9061C17.9472 26.7699 18.0583 26.656 18.1925 26.5753V26.5753Z"/>
</mask>
<path d="M18.1925 26.5753L18.6276 26.3138L17.3432 27.0847C17.2088 27.1655 17.0975 27.2797 17.0203 27.4162C16.9431 27.5528 16.9025 27.7069 16.9024 27.8638V31.1414C16.9026 31.2289 16.9259 31.3148 16.97 31.3903C17.0141 31.4658 17.0775 31.5283 17.1536 31.5714C17.2298 31.6145 17.316 31.6366 17.4035 31.6355C17.4909 31.6344 17.5766 31.6102 17.6516 31.5652L18.4952 31.0566C18.4202 31.1005 18.3349 31.1238 18.2479 31.1242C18.161 31.1246 18.0755 31.102 18 31.0588C17.9246 31.0155 17.8619 30.9532 17.8183 30.8779C17.7747 30.8027 17.7517 30.7173 17.7517 30.6304V27.3528C17.752 27.1962 17.7927 27.0424 17.87 26.9061C17.9472 26.7699 18.0583 26.656 18.1925 26.5753V26.5753Z" fill="black"/>
<path d="M18.6276 26.3138L20.1732 28.885L17.0837 23.7416L18.6276 26.3138ZM17.3432 27.0847L15.7993 24.5125L15.7979 24.5133L17.3432 27.0847ZM16.9024 27.8638L13.9024 27.8634V27.8638H16.9024ZM16.9024 31.1414L13.9024 31.1414L13.9024 31.1457L16.9024 31.1414ZM17.6516 31.5652L19.1932 34.1388L19.2005 34.1344L17.6516 31.5652ZM18.4952 31.0566L20.0441 33.6258L16.9805 28.4671L18.4952 31.0566ZM17.7517 30.6304L14.7517 30.6304L14.7517 30.6317L17.7517 30.6304ZM17.7517 27.3528L14.7517 27.3471V27.3528H17.7517ZM19.7381 29.1466L20.1732 28.885L17.082 23.7426L16.6469 24.0041L19.7381 29.1466ZM17.0837 23.7416L15.7993 24.5125L18.8872 29.6569L20.1716 28.886L17.0837 23.7416ZM15.7979 24.5133C15.2198 24.8608 14.7414 25.3519 14.4093 25.9389L19.6313 28.8936C19.4537 29.2076 19.1978 29.4703 18.8885 29.6561L15.7979 24.5133ZM14.4093 25.9389C14.0771 26.526 13.9025 27.189 13.9024 27.8634L19.9024 27.8641C19.9024 28.2249 19.809 28.5796 19.6313 28.8936L14.4093 25.9389ZM13.9024 27.8638V31.1414H19.9024V27.8638H13.9024ZM13.9024 31.1457C13.9033 31.7635 14.068 32.37 14.3796 32.9035L19.5604 29.8771C19.7838 30.2595 19.9018 30.6942 19.9024 31.1371L13.9024 31.1457ZM14.3796 32.9035C14.6912 33.437 15.1387 33.8783 15.6764 34.1825L18.6308 28.9603C19.0163 29.1783 19.337 29.4947 19.5604 29.8771L14.3796 32.9035ZM15.6764 34.1825C16.2142 34.4867 16.8229 34.643 17.4407 34.6353L17.3662 28.6357C17.809 28.6302 18.2454 28.7422 18.6308 28.9603L15.6764 34.1825ZM17.4407 34.6353C18.0585 34.6276 18.6632 34.4563 19.1932 34.1388L16.11 28.9916C16.4899 28.764 16.9234 28.6412 17.3662 28.6357L17.4407 34.6353ZM19.2005 34.1344L20.0441 33.6258L16.9463 28.4874L16.1027 28.996L19.2005 34.1344ZM16.9805 28.4671C17.3612 28.2444 17.7938 28.1262 18.2348 28.1242L18.261 34.1242C18.8759 34.1215 19.4792 33.9566 20.0099 33.6461L16.9805 28.4671ZM18.2348 28.1242C18.6759 28.1223 19.1096 28.2368 19.4921 28.4561L16.508 33.6614C17.0414 33.9672 17.6461 34.1269 18.261 34.1242L18.2348 28.1242ZM19.4921 28.4561C19.8747 28.6755 20.1926 28.9919 20.4138 29.3734L15.2229 32.3825C15.5312 32.9144 15.9745 33.3556 16.508 33.6614L19.4921 28.4561ZM20.4138 29.3734C20.6349 29.7549 20.7515 30.1881 20.7517 30.6291L14.7517 30.6317C14.752 31.2466 14.9145 31.8505 15.2229 32.3825L20.4138 29.3734ZM20.7517 30.6304V27.3528H14.7517V30.6304H20.7517ZM20.7517 27.3584C20.751 27.7186 20.6573 28.0725 20.4797 28.3858L15.2602 25.4265C14.9282 26.0122 14.753 26.6738 14.7517 27.3471L20.7517 27.3584ZM20.4797 28.3858C20.302 28.6991 20.0465 28.9612 19.7378 29.1467L16.6472 24.0039C16.0701 24.3508 15.5923 24.8408 15.2602 25.4265L20.4797 28.3858Z" fill="black" mask="url(#path-7-inside-3_4_520)"/>
</g>
</g>
</svg>
