<svg width="323" height="363" viewBox="0 0 323 363" fill="none" xmlns="http://www.w3.org/2000/svg">
<path d="M185.869 8.48923L185.869 8.48915C178.432 4.02494 169.921 1.66667 161.246 1.66667C152.572 1.66667 144.061 4.02494 136.624 8.48915L114.441 21.8237L256.067 106.822L256.068 106.822C261.226 109.921 265.495 114.302 268.459 119.54C271.423 124.777 272.98 130.693 272.98 136.711C272.98 142.729 271.423 148.644 268.459 153.882C265.495 159.119 261.226 163.5 256.068 166.599L256.067 166.599L231.601 181.289L256.067 195.978M185.869 8.48923L256.067 195.978M185.869 8.48923L297.789 75.6557C297.789 75.6558 297.789 75.6558 297.789 75.6559C304.867 79.9055 310.723 85.9149 314.79 93.0992C318.856 100.284 320.993 108.398 320.993 116.654V245.955C320.994 254.21 318.857 262.325 314.791 269.51C310.725 276.695 304.867 282.704 297.789 286.953L185.869 354.119L186.641 355.405L185.869 354.119C178.432 358.584 169.921 360.942 161.246 360.942C152.572 360.942 144.061 358.584 136.624 354.119L108.797 337.41L108.025 338.696L108.797 337.41C107.297 336.51 106.057 335.237 105.195 333.715C104.334 332.193 103.882 330.474 103.883 328.725V328.725V117.646V117.645C103.881 115.379 103.294 113.152 102.178 111.179C101.062 109.207 99.4556 107.557 97.514 106.389L97.5128 106.388L61.5425 84.7914L61.5424 84.7914C60.3549 84.0785 58.9995 83.6936 57.6145 83.676C56.2296 83.6585 54.8649 84.0088 53.6597 84.6914C52.4545 85.3739 51.4521 86.3642 50.7549 87.5609C50.0578 88.7575 49.6908 90.1176 49.6913 91.5024C49.6913 91.5026 49.6913 91.5029 49.6913 91.5031V301.925L24.7042 286.922L23.932 288.208L24.704 286.922C17.6258 282.673 11.7685 276.664 7.70212 269.479C3.63579 262.294 1.49907 254.179 1.5 245.924L1.5 123.37L1.5 123.37C1.49671 113.067 4.15916 102.939 9.22853 93.9692C14.2963 85.0026 21.597 77.4993 30.4214 72.1882L31.0325 71.8317L31.0409 71.8268L31.0492 71.8218C40.3339 66.2432 50.9616 63.2959 61.7933 63.2959C72.6251 63.2959 83.2528 66.2432 92.5375 71.8218L92.5379 71.8221L197.398 134.779L163.011 155.43C158.884 157.907 155.468 161.411 153.096 165.6C150.725 169.79 149.478 174.522 149.478 179.336C149.478 184.15 150.725 188.882 153.096 193.071C155.468 197.26 158.884 200.764 163.011 203.241C163.011 203.241 163.011 203.242 163.011 203.242L200.653 225.846L137.292 263.889L137.291 263.889C135.348 265.057 133.741 266.707 132.625 268.679C131.509 270.652 130.922 272.88 130.922 275.146V317.099C130.922 317.099 130.922 317.1 130.922 317.1C130.921 318.485 131.288 319.845 131.985 321.041C132.682 322.238 133.685 323.228 134.89 323.911C136.095 324.593 137.46 324.944 138.845 324.926C140.23 324.909 141.585 324.524 142.773 323.811L142.773 323.811L256.067 255.766C256.067 255.766 256.068 255.766 256.068 255.766M185.869 8.48923L256.068 255.766M256.067 195.978C261.229 199.076 265.5 203.458 268.465 208.696C271.43 213.935 272.989 219.852 272.989 225.872C272.989 231.892 271.43 237.809 268.465 243.047C265.5 248.286 261.229 252.668 256.068 255.766M256.067 195.978L256.068 255.766" fill="black" stroke="black" stroke-width="3"/>
</svg>
